<?xml version="1.0" standalone="no"?>
<!DOCTYPE svg PUBLIC "-//W3C//DTD SVG 20010904//EN"
 "http://www.w3.org/TR/2001/REC-SVG-20010904/DTD/svg10.dtd">
<svg version="1.0" xmlns="http://www.w3.org/2000/svg"
 width="1421.000000pt" height="790.000000pt" viewBox="0 0 1421.000000 790.000000"
 preserveAspectRatio="xMidYMid meet">

<g transform="translate(0.000000,790.000000) scale(0.100000,-0.100000)"
fill="#000000" stroke="none">
<path d="M0 3950 l0 -3950 7105 0 7105 0 0 3950 0 3950 -7105 0 -7105 0 0
-3950z m2790 3175 c287 -65 491 -174 686 -369 196 -196 259 -313 438 -819 52
-147 110 -300 129 -339 71 -148 187 -298 220 -285 23 9 83 163 112 287 84 357
139 475 305 653 109 116 232 203 465 327 44 23 132 70 195 105 644 349 703
375 832 375 169 0 294 -72 354 -203 54 -120 43 -305 -29 -459 l-34 -74 38 -38
c94 -93 112 -279 44 -450 -27 -67 -27 -69 -11 -118 26 -83 21 -195 -14 -297
l-30 -87 22 -55 c33 -81 31 -219 -4 -316 -48 -133 -183 -303 -295 -372 -58
-36 -61 -42 -36 -62 29 -24 130 -166 196 -277 135 -224 201 -380 232 -547 32
-169 7 -459 -70 -825 -61 -289 -175 -578 -312 -785 -192 -291 -432 -512 -758
-697 -290 -165 -966 -464 -1312 -580 -116 -38 -137 -42 -223 -42 -107 1 -161
16 -455 126 -265 100 -847 371 -1116 521 -284 158 -540 389 -703 637 -240 365
-365 776 -422 1380 -13 141 -15 256 -11 590 5 436 12 529 63 857 14 92 28 190
31 217 6 48 5 49 -18 42 -13 -3 -60 -9 -104 -12 -180 -14 -328 69 -397 223
-40 87 -25 296 33 464 73 213 170 336 372 473 48 33 87 64 87 68 0 23 104 226
150 292 61 89 202 227 286 281 164 106 345 177 520 204 96 15 456 6 544 -14z
m5205 -1806 c178 -13 261 -30 350 -72 86 -41 160 -113 199 -193 57 -116 59
-149 60 -949 1 -822 -1 -862 -59 -982 -48 -98 -116 -149 -250 -189 -53 -16
-121 -18 -602 -21 l-543 -4 0 1210 0 1211 353 0 c193 0 415 -5 492 -11z m3775
-1199 l0 -1210 -300 0 -300 0 0 65 c0 36 -3 65 -6 65 -3 0 -26 -18 -51 -40
-58 -51 -166 -105 -240 -120 -178 -37 -377 50 -443 193 -48 103 -52 169 -47
882 4 706 4 714 60 803 34 53 130 125 200 148 35 13 82 18 147 19 127 0 216
-27 305 -95 36 -28 68 -50 71 -50 2 0 4 124 4 275 l0 275 300 0 300 0 0 -1210z
m-2062 786 c87 -19 204 -71 273 -122 56 -41 128 -136 163 -215 47 -108 51
-161 51 -654 -1 -528 -7 -591 -73 -725 -96 -196 -284 -302 -562 -316 -345 -19
-578 78 -674 279 -64 134 -68 172 -73 661 -5 464 1 574 38 708 27 98 63 161
129 228 87 89 208 147 351 169 86 13 287 6 377 -13z m3170 0 c90 -20 208 -73
278 -126 64 -48 144 -165 173 -252 29 -88 41 -254 41 -588 0 -305 -12 -549
-31 -627 -6 -26 -27 -81 -46 -122 -43 -90 -139 -191 -228 -238 -214 -113 -636
-107 -841 12 -65 38 -133 114 -169 190 -63 131 -67 172 -72 650 -5 438 2 581
32 701 58 226 234 375 490 414 83 12 285 5 373 -14z"/>
<path d="M2290 6726 c-188 -44 -351 -141 -468 -278 -30 -37 -83 -121 -124
-201 -39 -77 -82 -152 -96 -168 -13 -17 -63 -57 -111 -91 -189 -134 -236 -189
-269 -316 -37 -140 -36 -135 -10 -128 105 30 151 37 282 46 169 10 233 3 282
-35 28 -21 33 -33 36 -71 3 -45 5 -47 65 -84 99 -60 160 -75 298 -75 116 0
123 1 187 33 105 51 189 162 217 283 15 62 13 203 -3 279 -8 36 -10 70 -5 75
12 16 109 39 119 29 5 -5 16 -54 26 -109 24 -140 16 -287 -20 -375 -74 -181
-204 -301 -376 -345 -95 -25 -241 -17 -344 19 -76 26 -159 74 -183 105 -16 22
-16 24 -57 -249 -45 -299 -86 -680 -86 -797 l0 -24 170 7 c128 5 173 4 184 -5
8 -7 64 -80 123 -163 l108 -151 212 7 c198 7 213 6 230 -11 10 -10 61 -79 112
-153 52 -74 100 -142 108 -151 13 -15 23 -14 121 7 59 13 157 34 217 46 61 12
112 23 114 24 2 2 -22 31 -54 66 -73 81 -201 272 -254 379 -103 210 -111 457
-19 619 85 152 204 237 383 276 92 20 360 24 435 6 24 -6 46 -9 48 -7 3 2 -15
28 -40 57 -128 155 -203 307 -323 657 -112 326 -178 469 -275 600 -129 173
-286 278 -516 347 -75 22 -113 27 -239 30 -99 2 -169 -1 -205 -10z m-13 -437
c77 -37 106 -132 60 -200 -34 -50 -82 -79 -134 -79 -137 0 -207 142 -119 241
53 61 120 74 193 38z"/>
<path d="M6095 6621 c-6 -4 -91 -50 -190 -101 -200 -103 -632 -348 -740 -419
-193 -127 -277 -249 -340 -496 -100 -388 -165 -534 -327 -738 -39 -48 -69 -89
-67 -91 2 -1 46 -28 97 -60 89 -54 112 -61 112 -31 0 31 50 55 115 55 81 0
125 -9 125 -26 0 -14 -46 -112 -70 -151 -9 -15 -11 -26 -5 -31 6 -5 93 -65
195 -133 l185 -123 318 -4 c205 -3 317 -1 317 6 0 12 -95 116 -260 287 -193
198 -232 243 -228 257 4 10 49 13 194 14 213 1 280 12 391 66 38 18 88 54 113
79 45 45 89 123 77 135 -3 4 -57 -3 -119 -14 -62 -12 -160 -27 -218 -34 -116
-13 -529 -17 -572 -5 -18 5 -30 16 -34 33 -8 33 3 40 80 48 108 12 348 55 447
81 181 46 287 109 358 213 44 65 77 150 63 164 -13 13 -192 -29 -442 -102
-500 -146 -535 -153 -517 -106 6 15 260 143 399 202 85 36 307 147 393 197 38
22 91 61 117 85 50 47 107 147 92 161 -5 5 -81 -18 -169 -50 -339 -125 -628
-202 -665 -179 -30 19 8 45 191 137 101 51 207 110 234 131 59 45 215 235 284
347 54 89 101 179 101 195 0 12 -22 13 -35 1z"/>
<path d="M3472 4919 c-227 -35 -358 -176 -369 -399 -6 -114 14 -199 82 -335
184 -372 630 -766 1065 -940 311 -125 605 -182 986 -192 351 -9 641 36 885
139 l47 20 11 76 c7 42 14 102 17 132 l6 55 -74 37 c-112 55 -398 238 -1086
697 -963 642 -947 632 -1047 666 -27 10 -77 24 -110 32 -76 17 -330 25 -413
12z"/>
<path d="M5627 4143 c-145 -2 -217 -7 -215 -14 2 -5 45 -36 95 -67 51 -31 223
-142 383 -246 160 -103 293 -186 295 -184 2 2 -9 40 -24 84 -33 94 -122 271
-183 364 -50 76 -6 68 -351 63z"/>
<path d="M1650 3848 c0 -161 4 -299 9 -307 7 -12 37 -13 168 -7 87 4 159 11
161 15 1 4 32 70 68 147 36 76 68 146 71 154 4 14 -25 57 -162 253 l-26 37
-145 0 -144 0 0 -292z"/>
<path d="M2366 3820 l-120 -5 -73 -155 c-40 -85 -73 -157 -73 -160 0 -3 43
-64 96 -135 53 -72 99 -136 104 -144 7 -12 31 -13 171 -2 95 8 169 18 175 24
14 15 154 284 154 296 0 6 -43 73 -96 150 l-95 141 -62 -2 c-34 -1 -116 -4
-181 -8z"/>
<path d="M3429 3596 c-2 -2 -103 -25 -224 -50 -121 -26 -235 -50 -254 -54 -31
-7 -39 -17 -103 -136 -37 -70 -79 -141 -91 -158 l-23 -29 30 -33 c17 -18 69
-90 116 -159 l85 -126 136 -1 c75 0 157 3 183 6 l47 7 60 119 c53 107 62 118
81 112 52 -16 88 -35 88 -46 0 -7 -27 -61 -60 -120 -33 -59 -60 -111 -60 -116
0 -6 20 -40 44 -77 24 -36 65 -104 92 -151 30 -52 57 -86 69 -89 11 -2 92 -1
180 3 l159 7 111 205 c60 113 129 238 153 277 23 39 42 76 42 80 0 5 -26 20
-57 33 -113 46 -313 150 -410 213 -95 61 -298 222 -337 266 -17 19 -46 28 -57
17z"/>
<path d="M1670 3368 c0 -104 64 -468 92 -520 8 -16 25 -18 148 -18 l138 0 48
88 c25 48 63 117 82 153 l36 66 -100 139 -100 139 -172 3 -172 2 0 -52z"/>
<path d="M2241 2931 c-45 -81 -81 -151 -81 -154 0 -6 46 -81 166 -274 14 -22
20 -23 147 -22 72 1 157 4 187 7 l55 7 73 142 c64 126 72 145 61 165 -47 88
-173 267 -192 272 -12 3 -92 6 -178 6 l-157 0 -81 -149z"/>
<path d="M6005 3013 c-60 -19 -115 -36 -122 -38 -8 -3 12 -42 52 -106 35 -55
70 -114 77 -130 17 -37 26 -37 43 4 39 93 87 308 69 306 -5 -1 -58 -17 -119
-36z"/>
<path d="M4290 2803 c-68 -126 -139 -252 -157 -282 -23 -36 -31 -56 -23 -61 6
-4 54 -14 108 -24 53 -9 141 -25 195 -35 l98 -18 83 116 c46 64 98 130 116
146 l31 30 207 5 207 5 72 110 c58 87 69 110 55 112 -9 1 -103 9 -209 18 -205
16 -374 42 -541 81 -57 13 -107 24 -111 24 -4 0 -63 -102 -131 -227z"/>
<path d="M5417 2878 c-8 -13 -47 -77 -87 -142 l-74 -119 70 -133 c38 -73 76
-142 84 -153 14 -17 32 -19 187 -23 l173 -5 84 136 c47 75 88 143 91 152 5 14
-104 219 -149 281 -9 12 -47 16 -188 21 -177 7 -178 7 -191 -15z"/>
<path d="M3033 2733 l-62 -4 -76 -147 -77 -146 18 -31 c62 -110 169 -265 186
-271 11 -3 96 -3 189 1 l170 8 40 84 c22 46 53 106 69 134 17 27 30 57 30 66
0 17 -166 294 -184 305 -11 8 -179 8 -303 1z"/>
<path d="M1815 2691 c18 -78 253 -501 277 -501 4 0 19 21 34 48 15 26 44 75
65 110 22 35 39 69 39 75 0 12 -134 235 -162 269 -10 13 -37 17 -136 21 l-123
4 6 -26z"/>
<path d="M4761 2521 c-61 -78 -151 -208 -151 -219 0 -5 12 -36 26 -68 15 -33
44 -102 64 -154 l37 -95 84 -7 c46 -3 134 -6 195 -7 109 -1 110 -1 131 27 38
52 153 244 153 257 0 13 -135 284 -148 296 -4 4 -84 10 -179 14 l-171 7 -41
-51z"/>
<path d="M3632 2363 c-51 -97 -113 -214 -128 -241 l-19 -34 29 -21 c213 -159
269 -202 285 -223 11 -14 27 -51 36 -82 52 -186 159 -538 166 -546 4 -4 31 0
61 9 68 23 360 143 369 153 4 4 -3 59 -17 122 -13 63 -24 122 -24 131 0 17
154 235 202 285 l30 32 -64 158 -63 158 -100 17 c-55 9 -170 34 -255 55 -144
36 -167 39 -327 42 -157 3 -173 1 -181 -15z"/>
<path d="M2324 2338 c-9 -18 -46 -82 -82 -142 l-66 -109 85 -81 c47 -45 121
-106 164 -136 l80 -55 115 -3 115 -3 64 108 c35 59 73 119 83 132 21 28 23 23
-97 214 l-68 107 -188 0 -188 0 -17 -32z"/>
<path d="M5374 2137 c-17 -28 -55 -89 -84 -135 l-53 -82 33 -65 33 -65 41 25
c124 73 434 343 420 366 -3 5 -85 9 -182 9 l-177 0 -31 -53z"/>
<path d="M2915 1874 c-49 -80 -96 -149 -106 -155 -10 -5 -31 -9 -48 -9 -17 0
-31 -4 -31 -8 0 -17 482 -237 825 -377 124 -51 307 -116 312 -111 1 1 -25 82
-57 181 -32 99 -69 220 -81 268 -12 49 -31 100 -42 113 -10 14 -53 50 -95 81
-43 31 -107 80 -143 109 l-66 54 -190 0 -191 0 -87 -146z"/>
<path d="M4629 1768 c-117 -162 -111 -150 -99 -215 5 -31 10 -71 10 -89 0 -18
3 -35 8 -37 11 -7 652 296 652 308 0 4 -14 31 -32 60 l-32 54 -70 5 c-39 3
-137 8 -217 11 l-146 6 -74 -103z"/>
<path d="M7792 4912 c-9 -3 -12 -198 -12 -799 l0 -796 50 7 c71 10 96 23 117
65 17 33 18 85 21 721 2 457 0 697 -7 721 -6 20 -19 44 -30 53 -18 17 -115 36
-139 28z"/>
<path d="M11033 4569 c-47 -24 -48 -35 -48 -669 0 -650 0 -647 57 -671 38 -16
74 -4 102 34 21 28 21 38 24 585 4 589 1 669 -26 702 -20 24 -78 34 -109 19z"/>
<path d="M9470 4567 c-55 -28 -55 -29 -58 -592 -2 -288 1 -562 6 -615 9 -84
13 -97 36 -117 35 -30 68 -29 103 1 l28 24 0 632 0 632 -28 24 c-32 27 -51 29
-87 11z"/>
<path d="M12633 4568 c-44 -21 -46 -44 -50 -593 -3 -295 0 -561 5 -615 9 -84
13 -97 36 -117 35 -30 68 -29 103 1 l28 24 0 632 0 632 -28 24 c-30 26 -58 29
-94 12z"/>
</g>
</svg>
