<?xml version="1.0" standalone="no"?>
<!DOCTYPE svg PUBLIC "-//W3C//DTD SVG 20010904//EN"
 "http://www.w3.org/TR/2001/REC-SVG-20010904/DTD/svg10.dtd">
<svg version="1.0" xmlns="http://www.w3.org/2000/svg"
 width="720.000000pt" height="767.000000pt" viewBox="0 0 720.000000 767.000000"
 preserveAspectRatio="xMidYMid meet">

<g transform="translate(0.000000,767.000000) scale(0.100000,-0.100000)"
fill="#000000" stroke="none">
<path d="M0 3835 l0 -3835 3600 0 3600 0 0 3835 0 3835 -3600 0 -3600 0 0
-3835z m2505 3217 c208 -53 393 -134 515 -225 76 -57 214 -191 265 -257 111
-145 194 -318 305 -635 102 -294 111 -316 160 -417 77 -154 175 -288 211 -288
27 0 91 182 134 380 57 264 142 430 303 594 125 127 188 167 732 458 113 61
219 118 235 128 87 51 294 154 343 171 116 41 269 35 364 -12 193 -97 243
-345 125 -618 l-34 -78 35 -33 c102 -97 118 -301 38 -471 l-27 -55 20 -45 c32
-70 29 -189 -9 -298 l-30 -87 22 -55 c31 -79 31 -210 0 -301 -46 -134 -169
-288 -301 -377 l-61 -42 74 -91 c181 -224 339 -539 381 -761 31 -166 9 -443
-65 -802 -44 -215 -138 -480 -234 -661 -163 -307 -423 -582 -733 -777 -188
-118 -816 -417 -1133 -540 -63 -24 -180 -66 -260 -93 -137 -46 -151 -49 -250
-49 -99 0 -113 3 -250 49 -196 66 -411 151 -590 236 -82 38 -152 70 -154 70
-17 0 -588 292 -671 343 -582 359 -900 912 -1009 1757 -29 221 -36 361 -36
702 -1 437 20 690 86 1067 14 79 24 145 22 147 -2 1 -37 -2 -78 -8 -164 -23
-274 7 -374 102 -77 73 -100 130 -100 250 1 192 69 415 169 555 59 82 132 151
245 230 84 59 97 72 116 118 68 167 152 293 272 409 185 178 422 291 697 332
17 2 125 3 240 1 171 -2 225 -7 290 -23z"/>
<path d="M1995 6669 c-151 -30 -275 -90 -386 -188 -85 -75 -141 -154 -214
-306 -35 -71 -77 -146 -94 -166 -17 -21 -76 -67 -132 -103 -112 -75 -179 -132
-209 -182 -20 -31 -70 -207 -70 -243 0 -15 10 -15 113 7 155 33 378 36 452 6
50 -20 50 -20 50 -66 0 -25 6 -52 13 -61 24 -28 177 -98 252 -113 206 -43 391
44 476 224 40 84 51 180 35 310 -7 59 -14 115 -14 126 -2 14 9 22 43 32 76 23
77 23 96 -63 26 -115 24 -277 -5 -373 -30 -97 -61 -149 -140 -233 -89 -94
-193 -144 -336 -162 -102 -13 -269 29 -378 95 -38 23 -70 40 -72 38 -6 -6 -55
-316 -79 -498 -22 -164 -31 -254 -52 -504 l-5 -68 185 3 186 4 35 -50 c19 -28
67 -97 107 -155 l73 -105 225 0 225 0 112 -160 c133 -190 96 -178 376 -120
181 37 211 49 174 72 -21 13 -131 152 -188 239 -130 194 -189 355 -189 513 0
105 19 182 67 273 74 141 203 235 373 274 86 20 371 23 455 6 27 -6 51 -9 53
-7 2 2 -18 30 -44 62 -106 130 -227 357 -297 558 -20 55 -59 168 -87 250 -94
271 -174 419 -294 544 -125 129 -272 216 -452 267 -73 21 -116 26 -239 29 -82
2 -172 0 -200 -6z m-16 -449 c27 -13 46 -33 61 -65 29 -60 21 -104 -29 -158
-35 -37 -43 -41 -97 -44 -78 -5 -121 17 -153 80 -27 54 -24 98 11 142 51 65
134 83 207 45z"/>
<path d="M5668 6495 c-134 -69 -346 -186 -653 -362 -197 -112 -316 -210 -386
-315 -38 -56 -82 -180 -126 -348 -46 -180 -76 -266 -129 -380 -50 -105 -151
-261 -213 -329 l-41 -45 105 -68 c58 -37 108 -68 113 -68 4 0 20 18 35 40 l28
40 84 0 c50 0 87 -4 91 -11 8 -13 -20 -80 -59 -137 -16 -24 -27 -45 -25 -47
26 -24 372 -252 398 -261 42 -16 635 -20 645 -5 7 12 -170 207 -362 397 -84
83 -149 154 -146 158 3 3 48 6 98 6 199 0 394 30 495 76 86 39 190 154 190
209 l0 21 -107 -22 c-274 -58 -652 -76 -811 -40 -62 14 -80 22 -72 31 11 13
84 29 180 40 217 25 518 110 618 175 100 64 185 177 199 265 7 43 25 45 -209
-21 -244 -69 -498 -132 -594 -149 -95 -17 -194 -20 -178 -6 9 9 169 80 354
158 183 76 463 220 523 268 31 25 73 67 92 93 36 49 61 109 51 119 -4 4 -39
-5 -79 -20 -39 -14 -135 -49 -212 -77 -181 -66 -327 -106 -450 -125 -162 -24
-150 -4 65 104 211 107 308 177 405 293 137 164 281 418 237 418 -5 0 -74 -34
-154 -75z"/>
<path d="M3156 4845 c-87 -18 -182 -63 -235 -110 -51 -46 -107 -158 -123 -243
-45 -243 175 -621 547 -940 124 -107 301 -227 432 -295 128 -66 360 -155 493
-189 430 -109 986 -123 1300 -32 84 24 273 95 287 108 11 10 43 187 43 240 0
20 -14 32 -85 70 -99 54 -269 160 -550 343 -110 72 -238 155 -284 184 -46 30
-185 122 -310 206 -124 84 -360 243 -524 353 -164 110 -326 214 -360 231 -105
53 -231 79 -407 84 -111 3 -175 1 -224 -10z"/>
<path d="M5410 4070 c-80 -4 -180 -8 -222 -9 -43 0 -78 -4 -78 -8 0 -5 24 -21
53 -37 28 -16 90 -55 137 -87 47 -31 159 -104 250 -161 91 -57 202 -128 248
-157 46 -30 86 -51 89 -48 18 19 -111 308 -196 440 l-50 77 -43 -2 c-24 -1
-108 -5 -188 -8z"/>
<path d="M1397 4063 l-57 -4 2 -297 3 -297 50 -3 c28 -2 105 -1 173 3 115 7
124 9 132 29 4 12 38 84 74 160 37 76 63 143 59 149 -25 41 -179 253 -187 259
-11 8 -135 8 -249 1z"/>
<path d="M1985 3751 l-40 -6 -72 -145 c-39 -80 -72 -153 -72 -162 -1 -9 32
-61 73 -116 41 -55 87 -118 102 -141 l27 -42 161 7 c122 5 165 10 178 22 24
20 170 301 165 316 -3 6 -46 71 -97 144 l-92 132 -146 -1 c-81 -1 -165 -5
-187 -8z"/>
<path d="M3139 3536 c-2 -3 -117 -28 -254 -56 -138 -29 -256 -57 -263 -62 -7
-6 -33 -50 -59 -97 -26 -47 -64 -113 -85 -147 -21 -34 -38 -64 -38 -67 0 -4
39 -59 86 -124 47 -65 97 -137 111 -161 l25 -42 182 2 181 3 61 118 c34 65 64
120 67 123 5 5 87 -24 101 -37 4 -4 -21 -62 -57 -129 l-65 -122 78 -122 c43
-66 90 -138 104 -158 l26 -38 152 0 c102 0 161 4 177 13 16 7 48 56 89 132 35
66 104 191 153 277 49 86 89 161 89 167 0 5 -17 15 -37 22 -199 65 -487 236
-706 419 -111 93 -111 93 -118 86z"/>
<path d="M1444 3353 l-91 -4 4 -52 c2 -29 16 -117 30 -197 22 -132 35 -193 64
-302 l10 -38 139 0 c161 0 152 -5 209 109 22 42 55 104 75 139 l35 63 -60 82
c-33 45 -77 107 -99 138 -21 31 -49 59 -62 63 -22 6 -65 5 -254 -1z"/>
<path d="M2106 3021 l-88 -6 -83 -153 -83 -154 76 -118 c43 -65 85 -132 94
-149 l17 -31 184 0 184 0 63 118 c35 64 72 134 83 154 l20 36 -30 39 c-16 21
-58 83 -92 138 -35 55 -72 108 -83 118 -21 18 -71 20 -262 8z"/>
<path d="M5705 2944 c-66 -23 -124 -44 -128 -46 -5 -2 22 -53 58 -113 103
-168 96 -160 106 -144 12 19 65 191 79 254 5 28 12 60 15 73 6 27 16 28 -130
-24z"/>
<path d="M4088 2913 c-72 -117 -289 -515 -284 -520 7 -7 407 -86 410 -81 1 2
45 64 96 138 51 74 100 141 109 149 13 10 57 12 218 8 196 -5 202 -4 221 17
27 29 132 197 132 211 0 8 -46 14 -144 18 -179 8 -387 38 -575 83 -79 19 -144
34 -146 34 -1 0 -18 -26 -37 -57z"/>
<path d="M5037 2690 c-48 -77 -87 -141 -87 -143 0 -4 139 -265 158 -297 8 -12
40 -15 193 -15 l184 0 87 145 87 145 -31 55 c-17 30 -57 98 -88 150 l-57 95
-180 3 -179 2 -87 -140z"/>
<path d="M2597 2521 c-43 -81 -77 -154 -77 -161 0 -14 167 -270 187 -287 15
-12 341 -12 361 1 12 7 152 257 159 284 2 11 -12 43 -35 78 -21 32 -64 98 -95
147 l-57 87 -183 0 -184 0 -76 -149z"/>
<path d="M1500 2640 c0 -16 86 -201 138 -300 62 -116 141 -232 155 -227 10 3
94 137 134 214 l16 32 -70 108 c-39 59 -80 125 -92 146 l-23 37 -129 0 c-82 0
-129 -4 -129 -10z"/>
<path d="M4474 2479 c-36 -41 -147 -203 -157 -229 -7 -19 -4 -39 16 -85 14
-33 43 -103 65 -155 36 -84 44 -96 71 -103 17 -4 106 -6 197 -5 l167 3 90 140
91 139 -73 141 c-41 77 -79 146 -85 153 -8 8 -65 14 -187 18 l-174 7 -21 -24z"/>
<path d="M3333 2298 c-19 -24 -153 -266 -153 -276 0 -6 79 -63 176 -127 116
-77 174 -121 170 -130 -3 -8 26 -121 64 -252 37 -131 76 -267 85 -303 9 -36
18 -66 19 -68 11 -11 446 158 446 174 0 7 -11 55 -25 106 -14 51 -25 107 -25
123 0 23 29 68 116 185 l116 155 -15 40 c-8 22 -36 92 -61 155 l-47 115 -168
33 c-93 19 -202 43 -242 54 -93 26 -438 38 -456 16z"/>
<path d="M2027 2278 c-86 -143 -147 -252 -147 -263 0 -32 200 -193 314 -254
52 -27 68 -31 140 -31 45 0 86 4 92 8 12 7 174 267 174 278 0 4 -41 69 -92
145 l-92 139 -188 0 c-184 0 -188 0 -201 -22z"/>
<path d="M5027 2003 c-47 -72 -87 -136 -89 -144 -3 -15 53 -139 63 -139 10 0
172 111 239 165 82 65 230 210 230 224 0 7 -32 11 -88 11 -49 0 -129 3 -179 6
l-90 7 -86 -130z"/>
<path d="M2830 1953 l-136 -4 -54 -92 c-57 -97 -117 -184 -141 -204 -8 -6 -30
-13 -49 -15 -32 -4 -25 -9 110 -75 132 -65 512 -235 635 -285 77 -31 368 -129
372 -124 2 2 -12 54 -32 117 -19 63 -56 189 -82 281 l-46 168 -110 72 c-61 40
-137 94 -170 121 -55 44 -63 47 -111 45 -28 -1 -112 -4 -186 -5z"/>
<path d="M4382 1781 c-10 -14 -54 -74 -97 -134 l-77 -107 22 -95 c12 -52 22
-95 23 -95 1 0 38 17 82 39 44 21 186 89 315 151 129 62 239 117 244 121 5 4
-9 34 -30 66 l-39 58 -130 7 c-317 16 -292 17 -313 -11z"/>
</g>
</svg>
